<svg width="1190" height="1189" viewBox="0 0 1190 1189" fill="none" xmlns="http://www.w3.org/2000/svg">
<path d="M709.088 894.892C539.657 959.375 351.121 877.158 287.982 711.257C224.843 545.355 311.01 358.592 480.442 294.109C649.873 229.627 838.409 311.843 901.548 477.745C964.687 643.647 878.52 830.41 709.088 894.892Z" fill="url(#paint0_radial_110_2047)"/>
<circle cx="139.462" cy="139.462" r="139.462" transform="matrix(-0.123172 0.992385 0.992385 0.123172 472.141 457.994)" fill="#FFE500"/>
<circle cx="139.462" cy="139.462" r="139.462" transform="matrix(-0.123172 0.992385 0.992385 0.123172 472.141 457.994)" fill="#FFE500"/>
<path d="M657.707 626.157C651.216 635.31 658.087 646.055 654.837 655.707C651.623 665.251 650.764 676.188 661.228 681.835C672.397 687.861 666.657 694.091 665.29 704.773L665.228 704.783C663.98 714.737 667.941 722.187 674.408 727.063C679.933 723.115 685.168 718.768 690.069 714.058C689.095 713.572 688.108 713.001 687.116 712.335C678.51 706.527 679.353 697.894 679.281 689.167C675.899 685.574 672.872 681.711 670.992 677.781C667.403 670.3 668.885 664.421 671.405 658.261C668.544 651.728 715.57 610.535 724.121 604.04C726.55 602.182 727.523 589.597 729.316 582.325C728.245 577.67 726.939 573.095 725.41 568.613C723.645 571.578 721.691 574.446 719.425 577.164C714.828 582.615 710.48 589.746 704.192 593.399C699.04 596.388 693.626 598.907 688.528 602.003C677.435 608.76 665.38 615.38 657.707 626.157Z" fill="#F0C900"/>
<path d="M668.978 638.018C666.318 644.873 668.57 651.738 671.442 658.243C668.921 664.403 667.448 670.256 671.028 677.763C672.899 681.72 675.9 685.574 679.317 689.15C679.363 697.867 678.518 706.5 687.151 712.317L687.177 712.327C688.161 712.986 689.133 713.551 690.095 714.033C712.34 692.64 727.665 663.762 731.762 630.748C733.913 613.417 732.786 596.436 728.866 580.425C725.729 585.125 722.161 593.239 719.662 595.15C711.121 601.618 707.813 600.327 700.783 608.326C697.901 609.898 695.179 611.611 692.725 613.59C683.938 620.717 671.904 624.384 669.672 636.44C669.444 636.957 669.188 637.466 668.978 638.018Z" fill="#F1B622"/>
<path d="M601.625 626.028C601.419 625.86 601.161 625.658 600.721 625.32C599.167 624.135 597.512 623.079 595.955 621.922C592.376 619.239 589.299 615.484 588.437 611.011C586.695 601.753 591.602 595.105 595.259 587.565C594.422 584.485 594.897 581.114 597.299 578.436C597.564 578.129 597.829 577.821 598.122 577.518L598.331 577.657C600.234 575.342 603.132 573.916 606.154 573.781C609.188 572.173 613.169 572.072 616.348 572.948C622.295 574.594 626.344 580.113 626.922 586.194C627.372 591.013 630.636 593.033 631.12 599.415C631.371 602.649 630.578 605.612 629.247 608.565C628.547 610.094 625.526 613.886 625.481 614.475C624.858 620.407 623.977 626.591 618.499 630.078C612.595 633.795 604.872 632.752 601.681 626.035L601.625 626.028Z" fill="#F0C900"/>
<path d="M601.456 618.468C594.886 614.534 592.582 608.664 594.812 601.202C595.734 598.114 597.57 595.422 599.319 592.748C599.319 592.748 599.085 595.553 599.431 592.081C599.707 589.394 600.484 587.251 602.191 585.139C606.715 579.521 615.425 580.602 618.439 587.155C619.757 590.012 619.874 592.946 619.294 595.794C620.077 597.932 620.85 600.154 620.409 602.565C620.024 604.757 619.38 606.746 618.454 608.729C618.116 609.395 617.778 610.062 617.437 610.757C617.322 610.998 616.41 614.003 616.768 612.034C615.393 619.687 607.761 622.255 601.456 618.468Z" fill="#D5A200"/>
<path d="M459.259 575.214C475.976 575.425 497.038 565.704 509.019 578.588C518.748 589.036 532.739 588.902 543.698 579.406C552.972 571.373 567.783 553.907 560.011 540.47C556.723 534.761 552.877 530.344 548.079 525.837L548.048 525.861C541.982 520.148 535.394 518.65 534.304 509.387C533.518 502.668 533.411 495.244 532.113 488.262C526.459 491.032 521.007 494.175 515.795 497.667C516.308 506.237 511.467 514.159 520.458 520.68C532.967 529.744 553.295 533.146 548.068 553.331C544.094 568.684 531.642 578.109 515.73 572.704C508.139 570.146 501.286 565.751 494.531 561.483C485.108 555.527 475.164 560.075 464.751 559.548C462.627 564.612 460.789 569.84 459.259 575.214Z" fill="#F0C900"/>
<path d="M464.751 559.551C475.161 560.102 485.105 555.552 494.531 561.482C501.29 565.723 508.115 570.113 515.731 572.702C531.646 578.079 544.095 568.682 548.069 553.33C553.327 533.12 532.968 529.743 520.459 520.679L520.434 520.647C511.438 514.135 516.258 506.233 515.772 497.683C493.412 512.668 475.453 534.034 464.751 559.551Z" fill="#F1B622"/>
<path d="M624.677 510.595C612.41 517.899 609.586 531.604 616.555 544.32C622.449 555.081 636.394 573.245 651.169 568.485C657.443 566.477 662.573 563.65 667.992 559.912L667.974 559.877C674.84 555.154 677.695 549.03 686.979 549.921C696.983 550.888 708.186 553.65 718.219 551.41C715.245 545.449 711.853 539.716 708.075 534.256C707.999 534.27 707.922 534.285 707.845 534.298C696.563 536.225 688.842 525.064 678.864 534.003C667.363 544.317 659.746 563.467 641.12 554.097C626.953 546.971 620.369 532.809 629.011 518.397C633.114 511.517 638.857 505.747 644.455 500.045C648.41 496.019 649.758 491.292 650.48 486.301C645.973 484.28 641.33 482.488 636.564 480.941C635.832 492.936 634.593 504.7 624.677 510.595Z" fill="#F0C900"/>
<path d="M629.012 518.399C620.396 532.82 626.952 546.971 641.119 554.097C659.764 563.504 667.363 544.317 678.864 534.004L678.901 533.986C688.888 525.022 696.599 536.209 707.881 534.282C707.943 534.272 708.005 534.259 708.066 534.249C693.769 513.59 673.964 496.831 650.46 486.296C649.738 491.287 648.397 496.015 644.455 500.046C638.883 505.757 633.151 511.502 629.012 518.399Z" fill="#F1B622"/>
<path d="M521.795 717.447C518.249 712.876 512.393 710.386 508.798 705.947C503.897 699.939 506.73 693.49 503.61 686.977C500.319 680.039 491.214 678.285 487.514 670.834C484.635 665.042 482.427 659.381 483.146 652.802C483.692 648.05 486.959 644.857 491.485 643.757C498.23 642.106 506.142 646.327 512.833 647.388C515.665 647.847 518.536 647.719 521.321 647.74C528.138 645.815 534.698 643.133 541.442 640.28C549.423 636.928 557.756 632.717 566.431 631.367C568.494 630.187 570.953 629.635 573.402 629.59C587.257 629.246 586.594 644.827 585.294 653.921C584.021 663.026 579.618 669.578 593.006 671.042C600.161 671.827 606.655 674.136 612.934 677.506C623.882 683.403 627.2 693.805 620.916 704.579C617.974 709.635 615.217 712.268 610.225 715.176C602.777 719.508 600.685 725.664 592.022 728.67C579.149 733.135 567.052 736.088 553.275 734.539C538.444 732.835 530.876 729.223 521.759 717.463L521.795 717.447Z" fill="#F0C900"/>
<path d="M523.855 703.35C526.161 687.633 509.367 684.354 503.434 676.128C504.419 673.493 506.39 668.224 504.741 664.604C525.478 657.344 564.316 641.838 566.628 651.713C572.903 675.085 576.201 682.325 600.899 688.561C615.058 690.854 608.159 709.297 595.649 710.624C574.249 711.629 556.811 726.13 536.021 719.404C526.533 716.185 525.709 712.123 523.855 703.35Z" fill="#F1B622"/>
<path opacity="0.3" d="M455.321 593.733C464.757 650.587 509.486 696.663 568.258 703.957C640.226 712.89 705.994 660.291 715.156 586.475C717.004 571.584 716.406 556.967 713.685 543.046C692.48 506.93 655.312 480.73 610.539 475.173C534.994 465.797 466.076 518.703 455.321 593.733Z" fill="white"/>
<path opacity="0.3" d="M482.355 535.479C476.139 585.563 512.826 631.343 564.297 637.731C615.768 644.12 662.533 608.697 668.749 558.613C672.346 529.635 661.58 502.097 641.899 482.797C631.982 479.126 621.488 476.531 610.539 475.173C560.29 468.936 512.971 490.255 483.752 527.311C483.166 529.986 482.699 532.71 482.355 535.479Z" fill="white"/>
<ellipse opacity="0.3" cx="32.5107" cy="37.1149" rx="32.5107" ry="37.1149" transform="matrix(0.231792 0.972765 0.972765 -0.231792 537.44 488.867)" fill="#FFF7F7"/>
<path d="M451.886 623.354C419.142 640.524 386.403 658.299 357.649 680.85C350.511 686.443 343.657 692.452 337.863 699.002C332.198 705.383 327.265 713.258 327.866 719.4C327.967 720.145 328.068 720.891 328.307 721.541C328.388 722.138 328.327 721.69 328.327 721.69C328.317 721.616 328.317 721.616 328.327 721.69C328.666 721.948 330.128 722.662 331.913 722.952C335.502 723.682 339.926 723.844 344.235 723.717C353.001 723.445 362.03 722.302 370.943 720.871C406.867 714.884 442.76 705.865 478.255 696.142C513.854 686.631 549.208 675.864 584.382 664.893C654.691 642.653 724.884 618.988 792.488 590.207C809.086 582.73 826.121 575.118 840.557 565.125C844.022 562.684 847.119 559.762 850.1 556.552C852.879 553.52 855.546 549.669 855.637 547.532C855.676 546.692 855.656 546.543 854.546 545.63C853.382 544.877 851.472 544.224 849.508 543.73C845.526 542.902 841.018 542.675 836.54 542.673C818.499 542.831 800.085 545.848 782 549.048C763.87 552.481 745.696 556.149 727.677 560.402C745.271 554.688 763.085 549.476 781.158 545.063C799.242 540.725 817.366 536.685 836.299 535.268C841.045 535.007 845.886 534.884 850.996 535.637C853.556 536.05 856.221 536.677 859.017 538.273C861.857 539.635 864.856 543.859 864.539 547.697C863.929 554.989 860.188 558.757 857.232 562.723C854.097 566.485 850.634 570.064 846.653 573.182C831.191 585.135 814.481 593.461 797.77 601.788C764.15 618.089 729.666 631.927 694.857 645.049C660.134 658.235 624.836 669.982 589.563 681.345C518.597 703.218 447.277 724.153 372.879 734.65C363.542 735.758 354.101 736.653 344.305 736.609C339.36 736.518 334.479 736.342 328.99 735.034C326.315 734.332 323.312 733.448 320.121 730.615C319.33 729.811 318.613 728.997 318.005 727.865C317.417 726.882 316.907 725.357 316.827 724.761C316.392 723.226 316.255 721.65 316.193 720.065C316.019 713.714 318.401 708.307 320.988 703.86C323.724 699.393 326.923 695.546 330.397 692.041C337.269 685.042 344.759 679.25 352.449 673.811C368.007 663.135 384.414 654.242 401.05 645.925C417.686 637.609 434.646 630.007 451.96 623.344L451.886 623.354Z" fill="url(#paint1_linear_110_2047)"/>
<defs>
<radialGradient id="paint0_radial_110_2047" cx="0" cy="0" r="1" gradientTransform="matrix(-130.191 297.471 300.393 124.008 594.711 594.523)" gradientUnits="userSpaceOnUse">
<stop stop-color="#FFFFC8"/>
<stop offset="0.08" stop-color="#FFFFC8" stop-opacity="0.82"/>
<stop offset="0.17" stop-color="#FFFFC8" stop-opacity="0.63"/>
<stop offset="0.26" stop-color="#FFFFC8" stop-opacity="0.46"/>
<stop offset="0.36" stop-color="#FFFFC8" stop-opacity="0.32"/>
<stop offset="0.46" stop-color="#FFFFC8" stop-opacity="0.2"/>
<stop offset="0.57" stop-color="#FFFFC8" stop-opacity="0.11"/>
<stop offset="0.69" stop-color="#FFFFC8" stop-opacity="0.05"/>
<stop offset="0.82" stop-color="#FFFFC8" stop-opacity="0.01"/>
<stop offset="1" stop-color="#FFFFC8" stop-opacity="0"/>
</radialGradient>
<linearGradient id="paint1_linear_110_2047" x1="309.905" y1="674.543" x2="871.594" y2="598.729" gradientUnits="userSpaceOnUse">
<stop stop-color="#FFFF62"/>
<stop offset="0.110577" stop-color="#F1B622"/>
<stop offset="0.721154" stop-color="#FFFFC8"/>
<stop offset="1" stop-color="#F8DA75"/>
</linearGradient>
</defs>
</svg>
